<svg data-name="Layer 1" xmlns="http://www.w3.org/2000/svg" viewBox="0 0 68 68"><path d="M34 0a34 34 0 1 0 34 34A34.038 34.038 0 0 0 34 0zm0 66.855A32.855 32.855 0 1 1 66.855 34 32.892 32.892 0 0 1 34 66.855zM17.395 14.267a1.974 1.974 0 1 0-2.542-3.019 1.974 1.974 0 1 0 2.542 3.02zM15.317 11.8a1.256 1.256 0 0 1 1.614 1.916 1.257 1.257 0 0 1-1.614-1.916zm36.856 3.802a.358.358 0 0 0 .484-.527l-.957-.879 1.849-2.016a.403.403 0 0 0-.02-.57.41.41 0 0 0-.58.02l-2.038 2.223a.391.391 0 0 0 .022.611zM4.669 31.925a.373.373 0 0 0 .143-.015l2.931-.709a.701.701 0 0 0 .17-1.296L5.263 28.46a.373.373 0 0 0-.135-.046.403.403 0 0 0-.234.758l.412.206-.217 1.662-.452.093a.392.392 0 0 0-.314.336.405.405 0 0 0 .345.456zm1.287-2.214l1.595.806-1.749.368zm3.554-10.033a.665.665 0 1 0-.211-.912.663.663 0 0 0 .211.912zM26.18 8.934a.413.413 0 0 0 .5.29.406.406 0 0 0 .286-.494l-.306-1.184 1.484-.384a.351.351 0 0 0 .256-.427.355.355 0 0 0-.431-.249l-1.483.384-.208-.803 1.522-.394a.349.349 0 1 0-.174-.675l-1.894.49a.389.389 0 0 0-.308.523zM6.487 26.516l2.049.634a.397.397 0 1 0 .234-.757l-2.038-.631a.552.552 0 0 1-.4-.731.642.642 0 0 1 .21-.316.334.334 0 0 0 .076-.134.35.35 0 0 0-.233-.44.339.339 0 0 0-.352.101 1.42 1.42 0 0 0-.391.64 1.187 1.187 0 0 0 .845 1.634zm14.565-15.358a.413.413 0 0 0 .552.177.407.407 0 0 0 .173-.544l-.553-1.093 1.37-.694a.352.352 0 0 0 .159-.471.356.356 0 0 0-.475-.152l-1.37.693-.374-.74 1.405-.712A.35.35 0 1 0 21.624 7l-1.748.884a.389.389 0 0 0-.19.577zm11.2-2.91a.406.406 0 0 0 .372-.433l-.207-3.078a.403.403 0 0 0-.427-.379.409.409 0 0 0-.384.434l.207 3.078a.414.414 0 0 0 .44.378zM58.44 19.625a.665.665 0 1 0-.915-.213.662.662 0 0 0 .915.213zM59.671 30.1a.394.394 0 0 0 .435.354l2.043-.205-2.062 1.812a.52.52 0 0 0 .394.908l2.872-.289a.403.403 0 0 0 .354-.44.397.397 0 0 0-.433-.349l-2.133.215 2.155-1.883a.48.48 0 0 0 .166-.415.486.486 0 0 0-.532-.435l-2.904.292a.398.398 0 0 0-.355.435zm-1.141-4.72l.677 2.254a.35.35 0 1 0 .669-.2l-.224-.745 2.559-.768a.4.4 0 0 0-.23-.766l-2.559.768-.223-.744a.35.35 0 1 0-.67.201zM37.579 8.466a1.755 1.755 0 0 0 1.424-.393.355.355 0 0 0 .129-.238.383.383 0 0 0-.331-.429.391.391 0 0 0-.3.088 1.03 1.03 0 0 1-.83.256 1.184 1.184 0 0 1-.997-1.392 1.183 1.183 0 0 1 1.318-1.094 1.044 1.044 0 0 1 .733.452.377.377 0 0 0 .272.169.384.384 0 0 0 .43-.332.37.37 0 0 0-.063-.268 1.748 1.748 0 0 0-1.279-.736 1.933 1.933 0 0 0-2.24 1.702 1.933 1.933 0 0 0 1.734 2.215zm7.718 48.857a1.927 1.927 0 1 0 2.596.879 1.87 1.87 0 0 0-2.596-.88zm1.379 2.832a1.227 1.227 0 1 1 .483-1.596 1.13 1.13 0 0 1-.483 1.596zm-1.04-49.239a.41.41 0 0 0 .474-.044l.357-.31 1.488.857-.089.464a.403.403 0 0 0 .195.43.416.416 0 0 0 .568-.15.385.385 0 0 0 .042-.14l.477-3.055a.719.719 0 0 0-1.161-.668l-2.407 1.943a.382.382 0 0 0-.096.11.41.41 0 0 0 .152.563zm2.788-2.033l-.336 1.8-1.052-.605zm-6.168.658a.407.407 0 0 0 .51-.257l.989-2.923a.403.403 0 0 0-.25-.513.41.41 0 0 0-.52.253l-.99 2.923a.414.414 0 0 0 .261.517zm-8.93 52.133a.662.662 0 1 0 .649.681.663.663 0 0 0-.65-.68zm-5.55-2.422l-2.258-.662a.35.35 0 1 0-.197.67l.746.218-.752 2.564a.4.4 0 0 0 .767.224l.751-2.563.745.219a.35.35 0 1 0 .197-.67zm-5.15-1.885l-1.183-.595a.38.38 0 0 0-.562.185l-1.328 2.633a.403.403 0 0 0 .18.535.397.397 0 0 0 .528-.178l.44-.872.848.427a1.196 1.196 0 1 0 1.076-2.134zm-.145 1.266a.508.508 0 0 1-.72.213l-.753-.38.463-.918.753.38a.511.511 0 0 1 .257.705zm37.002-13.248a1.947 1.947 0 1 0 .779 2.628 1.872 1.872 0 0 0-.779-2.628zm.158 2.296a1.227 1.227 0 1 1-.543-1.577 1.13 1.13 0 0 1 .543 1.578zm-3.637 2.336a1.163 1.163 0 0 0-1.723.202l-.843 1.023a.38.38 0 0 0 .057.59l2.278 1.877a.404.404 0 0 0 .563-.06.397.397 0 0 0-.058-.553l-.755-.622.604-.734a1.16 1.16 0 0 0-.123-1.723zm-.47 1.372l-.537.651-.794-.654.537-.651a.515.515 0 1 1 .794.654zm-3.373 2.115a.65.65 0 0 0-.915-.097.643.643 0 0 0-.208.705l.618 1.994-1.808-1.04a.65.65 0 0 0-.837.964l1.725 2.152a.403.403 0 0 0 .562.058.397.397 0 0 0 .057-.554l-1.453-1.812 2.399 1.376a.228.228 0 0 0 .331-.265l-.821-2.641 1.453 1.813a.4.4 0 0 0 .623-.5zM42.25 61.41a.384.384 0 0 0-.24.187 1.006 1.006 0 0 1-.662.53 1.226 1.226 0 0 1-.596-2.372 1.018 1.018 0 0 1 .826.149.37.37 0 0 0 .307.055.375.375 0 0 0 .272-.454.36.36 0 0 0-.154-.22 1.706 1.706 0 0 0-1.423-.212 1.926 1.926 0 1 0 .94 3.736 1.71 1.71 0 0 0 1.152-.866.346.346 0 0 0 .033-.261.374.374 0 0 0-.455-.272zM57.08 34A23.08 23.08 0 1 0 34 57.08 23.106 23.106 0 0 0 57.08 34zM34 56.508A22.508 22.508 0 1 1 56.508 34 22.533 22.533 0 0 1 34 56.508zM7.62 37.159a.415.415 0 0 0 .543-.42.43.43 0 0 0-.3-.382l-2.673-.803 2.572-1.089a.42.42 0 0 0-.183-.807.324.324 0 0 0-.143.041L4.71 34.92a.703.703 0 0 0 .069 1.31zm1.17 2.997a.694.694 0 0 0-.59-.53l-2.994-.395a.363.363 0 0 0-.142.006.403.403 0 0 0 .054.792l.459.044.395 1.63-.388.25a.393.393 0 0 0-.172.427.406.406 0 0 0 .487.301.37.37 0 0 0 .128-.065l2.482-1.718a.7.7 0 0 0 .28-.742zM6.582 41.3l-.28-1.151 1.78.177zm2.552 3.269c.203-.092.423.016.594.392a1.75 1.75 0 0 1 .13.867.342.342 0 0 0 .028.196.37.37 0 0 0 .485.178.358.358 0 0 0 .208-.297 2.237 2.237 0 0 0-.197-1.18c-.385-.848-1.064-1.128-1.628-.873-.757.344-.587 1.125-.463 1.736.086.433.133.767-.12.883-.194.087-.47-.02-.65-.417a1.605 1.605 0 0 1-.117-.976.355.355 0 0 0-.026-.22.373.373 0 0 0-.493-.182.368.368 0 0 0-.21.279 2.227 2.227 0 0 0 .2 1.35c.415.914 1.084 1.144 1.704.863.752-.341.597-1.13.47-1.746-.086-.432-.144-.75.085-.853zm9.322 10.699l-1.742 2.457a.403.403 0 0 0 .1.557.397.397 0 0 0 .547-.098l1.743-2.457a.394.394 0 0 0-.09-.55.4.4 0 0 0-.558.09zm44.896-20.06a.347.347 0 0 0-.37.316l-.134 1.53-.862-.076.131-1.49a.34.34 0 1 0-.679-.06l-.13 1.49-.807-.07.134-1.53a.34.34 0 1 0-.678-.06l-.168 1.902a.38.38 0 0 0 .38.454l2.87.252a.381.381 0 0 0 .46-.38l.168-1.902a.348.348 0 0 0-.314-.375zm-.78 5.283l-2.81-.808a.397.397 0 0 0-.22.763l1.977.568-2.59.918a.52.52 0 0 0 .028.991l2.778.8a.403.403 0 0 0 .492-.277.398.398 0 0 0-.273-.486l-2.063-.594 2.704-.949a.478.478 0 0 0 .309-.324.486.486 0 0 0-.332-.602zm-47.32 11.523a.38.38 0 0 0-.593.011l-2.048 2.126a.404.404 0 0 0 .015.565.398.398 0 0 0 .557-.015l.679-.704.47.454-.233 1.451a.41.41 0 0 0 .121.35.39.39 0 0 0 .652-.242l.142-1.058a1.084 1.084 0 0 0 1.26-.285 1.161 1.161 0 0 0-.068-1.734zm.442 2.086a.514.514 0 0 1-.76-.017l-.6-.577.714-.741.6.578a.514.514 0 0 1 .047.757zm-3.181-3.758a.369.369 0 0 0 .059.307.374.374 0 0 0 .521.09.359.359 0 0 0 .151-.221 1.707 1.707 0 0 0-.312-1.405A1.927 1.927 0 1 0 9.78 51.33a1.71 1.71 0 0 0 1.222.766.344.344 0 0 0 .255-.064.374.374 0 0 0 .09-.522.383.383 0 0 0-.26-.157 1.007 1.007 0 0 1-.731-.428 1.226 1.226 0 0 1 2-1.408 1.018 1.018 0 0 1 .158.825zm33.09-24.719c-.596 0-2.98 1.55-5.246 1.55a3.113 3.113 0 0 1-1.252-.239 15.281 15.281 0 0 0-5.902-1.37 16.756 16.756 0 0 0-5.961 1.37 4.111 4.111 0 0 0-.477.18v-1.79a3.164 3.164 0 0 0 1.252-2.563 3.22 3.22 0 0 0-6.439 0 3.249 3.249 0 0 0 1.252 2.564v21.163a1.985 1.985 0 0 0 1.967 1.967 1.932 1.932 0 0 0 1.848-1.37v-.12a1.313 1.313 0 0 0 .06-.477v-4.411a.455.455 0 0 0 .298-.12 17.462 17.462 0 0 1 6.558-1.669c3.1 0 4.292 1.61 6.915 1.61a12.636 12.636 0 0 0 5.187-1.371c.417-.179.715-.358.715-.775V26.339c.179-.417-.239-.715-.775-.715zm-15.955 9.98a3.21 3.21 0 0 1-1.717-.44.442.442 0 0 1-.22-.385.529.529 0 0 1 .483-.522.437.437 0 0 1 .277.073 2.238 2.238 0 0 0 1.228.37c.57.007.847-.246.847-.525 0-.365-.424-.511-.986-.646-.796-.196-1.819-.342-1.819-1.426 0-.806.701-1.542 1.92-1.532a2.779 2.779 0 0 1 1.513.46.51.51 0 0 1 .242.424.45.45 0 0 1-.475.453.473.473 0 0 1-.248-.086 2.193 2.193 0 0 0-1.104-.345c-.54-.003-.789.213-.789.504 0 .33.41.417.972.557.804.19 1.826.507 1.826 1.59 0 .897-.635 1.497-1.95 1.477zm7.621-3.839q-.705 1.745-1.41 3.479a.796.796 0 0 1-.854.486 1.084 1.084 0 0 1-.863-.697q-.701-1.906-1.402-3.801a.453.453 0 0 1-.044-.194.483.483 0 0 1 .548-.491.63.63 0 0 1 .519.423l1.242 3.583 1.234-3.28a.489.489 0 0 1 .519-.304.63.63 0 0 1 .548.61.513.513 0 0 1-.037.186zm5.694 3.157a.846.846 0 0 1-.285.693 2.531 2.531 0 0 1-1.79.686 2.624 2.624 0 0 1-2.593-2.677 2.338 2.338 0 0 1 2.593-2.37 2.43 2.43 0 0 1 1.629.58.465.465 0 0 1 .153.355.512.512 0 0 1-.482.509.461.461 0 0 1-.336-.127 1.418 1.418 0 0 0-.964-.397 1.455 1.455 0 0 0-1.527 1.536 1.583 1.583 0 0 0 1.527 1.664 1.498 1.498 0 0 0 1.037-.38v-.584q-.445.013-.89.009a.458.458 0 0 1-.454-.455.453.453 0 0 1 .454-.451c.477.004.954-.005 1.431-.032a.44.44 0 0 1 .497.47z" fill="#231f20"/></svg>